<svg height="464pt" viewBox="0 0 464 464" width="464pt" xmlns="http://www.w3.org/2000/svg"><path d="m215.425781 47.832031 56.570313 56.570313-135.765625 135.765625-56.570313-56.570313zm0 0" fill="#195c85"/><path d="m416 184-32 32-152-119.769531 56.566406-56.566407zm0 0" fill="#195c85"/><path d="m0 416h304v48h-304zm0 0" fill="#32b1cc"/><path d="m384 240c-17.671875 0-32 14.328125-32 32v80l32-16v-64h48v64l32 16v-80c0-17.671875-14.328125-32-32-32zm0 0" fill="#32b1cc"/><path d="m56 232h80v184h-80zm0 0" fill="#195c85"/><path d="m160 232c0 35.347656-28.652344 64-64 64s-64-28.652344-64-64 28.652344-64 64-64 64 28.652344 64 64zm0 0" fill="#d9176c"/><path d="m128 232c0 17.671875-14.328125 32-32 32s-32-14.328125-32-32 14.328125-32 32-32 32 14.328125 32 32zm0 0" fill="#fcf05a"/><path d="m320 64c0 35.347656-28.652344 64-64 64s-64-28.652344-64-64 28.652344-64 64-64 64 28.652344 64 64zm0 0" fill="#d9176c"/><path d="m288 64c0 17.671875-14.328125 32-32 32s-32-14.328125-32-32 14.328125-32 32-32 32 14.328125 32 32zm0 0" fill="#fcf05a"/><path d="m408 176c17.671875 0 32 14.328125 32 32v40h-64v-40c0-17.671875 14.328125-32 32-32zm0 0" fill="#d9176c"/><g fill="#32b1cc"><path d="m88 392c-4.417969 0-8-3.582031-8-8v-48c0-4.417969 3.582031-8 8-8s8 3.582031 8 8v48c0 4.417969-3.582031 8-8 8zm0 0"/><path d="m152 168c-3.234375 0-6.152344-1.949219-7.390625-4.9375s-.550781-6.429688 1.734375-8.71875l32-32c3.140625-3.03125 8.128906-2.988281 11.214844.097656 3.085937 3.085938 3.128906 8.074219.097656 11.214844l-32 32c-1.5 1.5-3.535156 2.34375-5.65625 2.34375zm0 0"/></g></svg>